<?xml version="1.0" encoding="UTF-8" standalone="no"?>
<!DOCTYPE svg PUBLIC "-//W3C//DTD SVG 1.1//EN" "http://www.w3.org/Graphics/SVG/1.1/DTD/svg11.dtd">
<svg version="1.1" xmlns="http://www.w3.org/2000/svg" xmlns:xlink="http://www.w3.org/1999/xlink" preserveAspectRatio="xMidYMid meet" viewBox="0 0 23 12" width="23" height="12"><defs><path d="M0 11.13C0.31 11.25 1.47 11.37 3.49 11.47C5.51 11.58 8.38 11.68 12.1 11.76C14.05 11.86 15.35 11.76 16 11.47C16.98 11.04 17.01 10.46 16 10.02C15.33 9.73 13.99 9.63 11.98 9.73C13.99 9.78 15.33 9.62 16 9.27C17.01 8.73 17.06 8.47 16 7.93C15.29 7.57 13.87 7.39 11.75 7.4C13.87 7.58 15.29 7.5 16 7.17C17.06 6.68 17.21 5.91 16 5.43C15.19 5.11 13.58 5.05 11.16 5.25L20.48 5.08C22.55 4.15 22.51 3.59 20.36 3.39C18.22 3.2 14.39 3.2 8.9 3.39C11.38 2.48 12.86 1.71 13.32 1.07C14.02 0.11 12.55 -0.42 10.23 0.43C7.91 1.28 6.73 2.22 4.91 3.1C3.7 3.69 2.27 4.24 0.63 4.76" id="drxHIT1E6"></path></defs><g><g><g><g><use xlink:href="#drxHIT1E6" opacity="1" fill-opacity="0" stroke="#000000" stroke-width="1" stroke-opacity="1"></use></g></g></g></g></svg>